HIERARCHY
ROOT joint_Root
{
	OFFSET 0.0 0.0 0.0
	CHANNELS 6 Xposition Yposition Zposition Zrotation Xrotation Yrotation 
	JOINT Hips
	{
		OFFSET -0.726466 93.3139 -2.00062
		CHANNELS 6 Xposition Yposition Zposition Zrotation Xrotation Yrotation 
		JOINT Spine
		{
			OFFSET 15.7357 0.0 0.0
			CHANNELS 6 Xposition Yposition Zposition Zrotation Xrotation Yrotation 
			JOINT Chest
			{
				OFFSET 8.98455 -0.406207 0.0
				CHANNELS 6 Xposition Yposition Zposition Zrotation Xrotation Yrotation 
				JOINT Neck
				{
					OFFSET 16.3773 0.0 0.0
					CHANNELS 6 Xposition Yposition Zposition Zrotation Xrotation Yrotation 
					JOINT Head
					{
						OFFSET 6.45672 0.0 0.0
						CHANNELS 6 Xposition Yposition Zposition Zrotation Xrotation Yrotation 
						End Site
						{
							OFFSET 0.0 0.0 0.0
						}
					}
				}
				JOINT Shoulder_L
				{
					OFFSET 12.9942 -0.242716 4.98039
					CHANNELS 6 Xposition Yposition Zposition Zrotation Xrotation Yrotation 
					JOINT UpperArm_L
					{
						OFFSET 5.34809 0.0 0.0
						CHANNELS 6 Xposition Yposition Zposition Zrotation Xrotation Yrotation 
						JOINT LowerArm_L
						{
							OFFSET 24.3286 1.87007e-05 0.0
							CHANNELS 6 Xposition Yposition Zposition Zrotation Xrotation Yrotation 
							JOINT Hand_L
							{
								OFFSET 22.2916 0.0 0.0
								CHANNELS 6 Xposition Yposition Zposition Zrotation Xrotation Yrotation 
								End Site
								{
									OFFSET 0.0 0.0 0.0
								}
							}
						}
					}
				}
				JOINT Shoulder_R
				{
					OFFSET 12.9945 -0.242716 -4.98039
					CHANNELS 6 Xposition Yposition Zposition Zrotation Xrotation Yrotation 
					JOINT UpperArm_R
					{
						OFFSET -5.34813 0.0 0.0
						CHANNELS 6 Xposition Yposition Zposition Zrotation Xrotation Yrotation 
						JOINT LowerArm_R
						{
							OFFSET -24.3289 0.000322201 0.0
							CHANNELS 6 Xposition Yposition Zposition Zrotation Xrotation Yrotation 
							JOINT Hand_R
							{
								OFFSET -22.2915 -0.000108084 0.0
								CHANNELS 6 Xposition Yposition Zposition Zrotation Xrotation Yrotation 
								End Site
								{
									OFFSET 0.0 0.0 0.0
								}
							}
						}
					}
				}
			}
		}
		JOINT UpperLeg_L
		{
			OFFSET -2.19248 -6.46944 0.0
			CHANNELS 6 Xposition Yposition Zposition Zrotation Xrotation Yrotation 
			JOINT LowerLeg_L
			{
				OFFSET 39.0811 0.0 -1.23785e-05
				CHANNELS 6 Xposition Yposition Zposition Zrotation Xrotation Yrotation 
				JOINT Foot_L
				{
					OFFSET 40.9854 0.0 -1.26872e-05
					CHANNELS 6 Xposition Yposition Zposition Zrotation Xrotation Yrotation 
					JOINT Toes_L
					{
						OFFSET 11.7543 0.0 0.0
						CHANNELS 6 Xposition Yposition Zposition Zrotation Xrotation Yrotation 
						End Site
						{
							OFFSET 0.0 0.0 0.0
						}
					}
				}
			}
		}
		JOINT UpperLeg_R
		{
			OFFSET -2.19251 6.46944 0.0
			CHANNELS 6 Xposition Yposition Zposition Zrotation Xrotation Yrotation 
			JOINT LowerLeg_R
			{
				OFFSET -39.0811 -0.00228153 -0.0401928
				CHANNELS 6 Xposition Yposition Zposition Zrotation Xrotation Yrotation 
				JOINT Foot_R
				{
					OFFSET -40.9854 0.0 0.0
					CHANNELS 6 Xposition Yposition Zposition Zrotation Xrotation Yrotation 
					JOINT Toes_R
					{
						OFFSET -11.7543 0.0 0.0
						CHANNELS 6 Xposition Yposition Zposition Zrotation Xrotation Yrotation 
						End Site
						{
							OFFSET 0.0 0.0 0.0
						}
					}
				}
			}
		}
	}
}
MOTION
Frames:	6
Frame Time:	0.0333333
0.000000 0.000000 0.000000 0.000000 0.000000 -0.000000 -1.073910 92.418000 -0.554748 88.240600 1.203230 3.602430 15.735700 0.000005 -0.000001 82.251300 85.716500 -81.607500 8.984550 -0.406207 -0.000000 0.730062 -1.194190 1.294140 16.377300 -0.000001 -0.000001 4.283170 -2.442820 0.035034 6.456720 -0.000001 -0.000000 6.266990 -2.933970 -1.135640 12.994200 -0.242716 4.980390 -89.737800 -0.747300 -70.664700 5.348090 -0.000007 -0.000001 -71.210000 37.644500 -11.218400 24.328600 0.000019 0.000005 1.571660 3.734790 -22.841200 22.291600 -0.000001 0.000005 5.806350 5.479360 -5.723980 12.994500 -0.242716 -4.980390 88.437700 4.390730 -70.391400 -5.348130 -0.000001 -0.000004 -67.364300 38.431500 -13.632000 -24.328900 0.000322 -0.000009 3.205870 10.059200 -17.785000 -22.291500 -0.000108 -0.000004 8.380630 5.420910 -3.629740 -2.192480 -6.469440 -0.000000 -175.259000 -6.475900 -2.815480 39.081100 -0.000007 -0.000012 -0.107037 0.266634 21.872500 40.985400 -0.000006 -0.000013 -0.151988 5.676160 -65.743100 11.754300 -0.000000 0.000003 -0.000047 -0.000531 -16.598200 -2.192510 6.469440 -0.000001 -179.881000 15.549300 -179.859000 -39.081100 -0.002282 -0.040193 -0.029137 0.097205 18.466600 -40.985400 0.000008 0.000006 4.025190 7.141650 -65.651700 -11.754300 -0.000006 -0.000006 -0.008310 -0.090540 -20.260300
0.000000 0.000000 0.000000 0.000000 0.000000 -0.000000 -1.075960 92.415300 -0.563342 88.234000 1.242980 3.616720 15.735700 0.000005 -0.000001 82.185200 85.702500 -81.567200 8.984550 -0.406207 -0.000000 0.756268 -1.206070 1.243100 16.377300 -0.000001 -0.000001 4.218570 -2.426230 -0.010068 6.456720 -0.000001 -0.000000 6.206710 -2.992780 -1.064570 12.994200 -0.242716 4.980390 -89.720300 -0.795803 -70.636400 5.348090 -0.000007 -0.000001 -71.268500 37.591300 -11.243700 24.328600 0.000019 0.000005 1.546810 3.670480 -22.869900 22.291600 -0.000001 0.000005 5.754420 5.480370 -5.762560 12.994500 -0.242716 -4.980390 88.443500 4.366460 -70.358200 -5.348130 -0.000001 -0.000004 -66.934700 37.691400 -13.775500 -24.328900 0.000322 -0.000009 3.779530 10.492400 -19.943400 -22.291500 -0.000108 -0.000004 8.167290 5.412070 -3.333280 -2.192480 -6.469440 -0.000000 -175.234000 -6.496040 -2.819950 39.081100 -0.000007 -0.000012 -0.108682 0.270390 21.897400 40.985400 -0.000006 -0.000013 -0.140690 5.767600 -65.751700 11.754300 -0.000000 0.000003 -0.000046 -0.000522 -16.597800 -2.192510 6.469440 -0.000001 -179.872000 15.553500 -179.858000 -39.081100 -0.002282 -0.040193 -0.029142 0.097076 18.491900 -40.985400 0.000008 0.000006 4.062080 7.106030 -65.669300 -11.754300 -0.000006 -0.000006 -0.008708 -0.093717 -20.390100
0.000000 0.000000 0.000000 0.000000 0.000000 -0.000000 -1.076620 92.423400 -0.585876 88.247500 1.249260 3.612150 15.735700 0.000005 -0.000001 82.289600 85.695100 -81.723200 8.984550 -0.406207 -0.000000 0.772386 -1.189290 1.140040 16.377300 -0.000001 -0.000001 4.064670 -2.454240 -0.035619 6.456720 -0.000001 -0.000000 6.118120 -3.039320 -0.973820 12.994200 -0.242716 4.980390 -89.701300 -0.848839 -70.613100 5.348090 -0.000007 -0.000001 -71.269000 37.524100 -11.289500 24.328600 0.000019 0.000005 1.561610 3.694330 -22.932700 22.291600 -0.000001 0.000005 5.712750 5.479850 -5.742510 12.994500 -0.242716 -4.980390 88.386900 4.483540 -70.188300 -5.348130 -0.000001 -0.000004 -66.318600 35.529000 -13.750700 -24.328900 0.000322 -0.000009 4.722490 10.599900 -24.189400 -22.291500 -0.000108 -0.000004 8.276700 5.398200 -2.879240 -2.192480 -6.469440 -0.000000 -175.259000 -6.499050 -2.818120 39.081100 -0.000007 -0.000012 -0.106317 0.265208 21.845000 40.985400 -0.000006 -0.000013 -0.138419 5.756810 -65.705900 11.754300 -0.000000 0.000003 -0.000048 -0.000542 -16.598600 -2.192510 6.469440 -0.000001 -179.880000 15.569300 -179.857000 -39.081100 -0.002282 -0.040193 -0.028938 0.096712 18.448100 -40.985400 0.000008 0.000006 4.042310 7.101270 -65.628500 -11.754300 -0.000006 -0.000006 -0.008533 -0.092332 -20.333500
0.000000 0.000000 0.000000 0.000000 0.000000 -0.000000 -1.063230 92.425700 -0.622480 88.238100 1.206480 3.613260 15.735700 0.000005 -0.000001 82.014400 85.680400 -81.485100 8.984550 -0.406207 -0.000000 0.795657 -1.231960 1.066460 16.377300 -0.000001 -0.000001 3.993390 -2.427320 -0.072711 6.456720 -0.000001 -0.000000 5.729320 -2.963870 -0.958853 12.994200 -0.242716 4.980390 -89.695600 -0.859983 -70.505500 5.348090 -0.000007 -0.000001 -71.311900 37.396700 -11.252700 24.328600 0.000019 0.000005 1.597320 3.774050 -22.959500 22.291600 -0.000001 0.000005 5.955630 5.482800 -5.855820 12.994500 -0.242716 -4.980390 88.349200 4.493140 -69.802100 -5.348130 -0.000001 -0.000004 -65.318600 32.374500 -14.395800 -24.328900 0.000322 -0.000009 5.292010 9.352590 -29.691500 -22.291500 -0.000108 -0.000004 9.341270 5.404110 -3.067950 -2.192480 -6.469440 -0.000000 -175.264000 -6.519710 -2.845570 39.081100 -0.000007 -0.000012 -0.106210 0.264737 21.860300 40.985400 -0.000006 -0.000013 -0.134747 5.716940 -65.690600 11.754300 -0.000000 0.000003 -0.000046 -0.000523 -16.597900 -2.192510 6.469440 -0.000001 -179.872000 15.553400 -179.893000 -39.081100 -0.002282 -0.040193 -0.028572 0.095555 18.459200 -40.985400 0.000008 0.000006 4.049470 7.129780 -65.604100 -11.754300 -0.000006 -0.000006 -0.008625 -0.093060 -20.363200
0.000000 0.000000 0.000000 0.000000 0.000000 -0.000000 -1.040490 92.437000 -0.685007 88.221800 1.118380 3.600910 15.735700 0.000005 -0.000001 80.980900 85.684700 -80.497000 8.984550 -0.406207 -0.000000 0.764266 -1.382050 0.976196 16.377300 -0.000001 -0.000001 3.915030 -2.322450 -0.068816 6.456720 -0.000001 -0.000000 5.415680 -2.738950 -0.954706 12.994200 -0.242716 4.980390 -89.675000 -0.914060 -70.422600 5.348090 -0.000007 -0.000001 -71.534400 37.055200 -10.984000 24.328600 0.000019 0.000005 1.562050 3.681620 -23.009400 22.291600 -0.000001 0.000005 5.981720 5.480370 -5.762480 12.994500 -0.242716 -4.980390 88.316700 4.477520 -69.371500 -5.348130 -0.000001 -0.000004 -63.707900 28.510400 -16.133400 -24.328900 0.000322 -0.000009 6.223280 8.532860 -36.314500 -22.291500 -0.000108 -0.000004 11.272300 5.404190 -3.077300 -2.192480 -6.469440 -0.000000 -175.261000 -6.609540 -2.873420 39.081100 -0.000007 -0.000012 -0.106153 0.265046 21.826600 40.985400 -0.000006 -0.000013 -0.119650 5.723690 -65.636700 11.754300 -0.000000 0.000003 -0.000049 -0.000552 -16.599000 -2.192510 6.469440 -0.000001 -179.851000 15.511000 -179.936000 -39.081100 -0.002282 -0.040193 -0.027016 0.091137 18.413300 -40.985400 0.000008 0.000006 4.070920 7.180660 -65.533000 -11.754300 -0.000006 -0.000006 -0.008517 -0.092202 -20.328200
0.000000 0.000000 0.000000 0.000000 0.000000 -0.000000 -0.999492 92.440700 -0.742251 88.217400 0.815769 3.622510 15.735700 0.000005 -0.000001 80.556300 85.684500 -80.123800 8.984550 -0.406207 -0.000000 0.753956 -1.442120 0.873863 16.377300 -0.000001 -0.000001 3.777560 -2.200510 -0.036984 6.456720 -0.000001 -0.000000 5.096900 -2.502390 -1.006100 12.994200 -0.242716 4.980390 -89.643200 -1.003130 -70.416200 5.348090 -0.000007 -0.000001 -71.726700 36.777600 -10.786700 24.328600 0.000019 0.000005 1.640100 3.898780 -22.836100 22.291600 -0.000001 0.000005 5.840360 5.480650 -5.773160 12.994500 -0.242716 -4.980390 88.356100 4.282820 -68.978500 -5.348130 -0.000001 -0.000004 -61.978300 23.711000 -18.820300 -24.328900 0.000322 -0.000009 8.349930 8.604650 -44.447300 -22.291500 -0.000108 -0.000004 12.849300 5.383100 -2.401860 -2.192480 -6.469440 -0.000000 -175.276000 -6.853820 -2.841420 39.081100 -0.000007 -0.000012 -0.105004 0.262180 21.826200 40.985400 -0.000006 -0.000013 -0.099251 5.652850 -65.626500 11.754300 -0.000000 0.000003 -0.000052 -0.000588 -16.600400 -2.192510 6.469440 -0.000001 -179.866000 15.261700 179.999000 -39.081100 -0.002282 -0.040193 -0.028000 0.093834 18.460200 -40.985400 0.000008 0.000006 4.062160 7.272450 -65.489700 -11.754300 -0.000006 -0.000006 -0.008737 -0.093947 -20.399400
